<?xml version="1.0" encoding="UTF-8" standalone="no"?>
<!-- Created with Inkscape (http://www.inkscape.org/) -->

<svg
   xmlns:dc="http://purl.org/dc/elements/1.1/"
   xmlns:cc="http://creativecommons.org/ns#"
   xmlns:rdf="http://www.w3.org/1999/02/22-rdf-syntax-ns#"
   xmlns:svg="http://www.w3.org/2000/svg"
   xmlns="http://www.w3.org/2000/svg"
   xmlns:xlink="http://www.w3.org/1999/xlink"
   xmlns:sodipodi="http://sodipodi.sourceforge.net/DTD/sodipodi-0.dtd"
   xmlns:inkscape="http://www.inkscape.org/namespaces/inkscape"
   id="svg2"
   sodipodi:docname="RadToolbox_Import_uni.svg"
   viewBox="0 0 31.999998 32"
   version="1.1"
   inkscape:version="0.92.4 (unknown)"
   width="32"
   height="32"
   inkscape:export-filename="/media/juhele/data_2TB/_SURO/QGIS_pluginy_ikony/RadToolbox_Import_uni.png"
   inkscape:export-xdpi="96"
   inkscape:export-ydpi="96">
  <defs
     id="defs4">
    <linearGradient
       inkscape:collect="always"
       id="linearGradient9219">
      <stop
         offset="0"
         style="stop-color:#ffcc00;stop-opacity:1"
         id="stop9221" />
      <stop
         offset="1"
         style="stop-color:#ffffff"
         id="stop9223" />
    </linearGradient>
    <linearGradient
       inkscape:collect="always"
       xlink:href="#linearGradient9219"
       id="linearGradient11448"
       gradientUnits="userSpaceOnUse"
       gradientTransform="translate(0,-160)"
       x1="38.302372"
       y1="302.3403"
       x2="37.899208"
       y2="335.72156" />
  </defs>
  <sodipodi:namedview
     id="base"
     bordercolor="#666666"
     inkscape:pageshadow="2"
     inkscape:window-y="0"
     pagecolor="#ffffff"
     inkscape:window-height="1140"
     inkscape:window-maximized="1"
     inkscape:zoom="1.7539063"
     inkscape:window-x="0"
     inkscape:snap-bbox="false"
     showgrid="false"
     borderopacity="1.0"
     inkscape:current-layer="g11350"
     inkscape:cx="-204.87972"
     inkscape:cy="-1.9278716"
     inkscape:snap-bbox-edge-midpoints="true"
     inkscape:snap-bbox-midpoints="false"
     inkscape:window-width="1920"
     inkscape:pageopacity="0"
     inkscape:document-units="px"
     showguides="true"
     fit-margin-top="0"
     fit-margin-left="0"
     fit-margin-bottom="0"
     fit-margin-right="0" />
  <metadata
     id="metadata112">
    <rdf:RDF>
      <cc:Work>
        <dc:format>image/svg+xml</dc:format>
        <dc:type
           rdf:resource="http://purl.org/dc/dcmitype/StillImage" />
        <cc:license
           rdf:resource="http://creativecommons.org/publicdomain/zero/1.0/" />
        <dc:publisher>
          <cc:Agent
             rdf:about="http://openclipart.org/">
            <dc:title>Openclipart</dc:title>
          </cc:Agent>
        </dc:publisher>
        <dc:title />
      </cc:Work>
      <cc:License
         rdf:about="http://creativecommons.org/publicdomain/zero/1.0/">
        <cc:permits
           rdf:resource="http://creativecommons.org/ns#Reproduction" />
        <cc:permits
           rdf:resource="http://creativecommons.org/ns#Distribution" />
        <cc:permits
           rdf:resource="http://creativecommons.org/ns#DerivativeWorks" />
      </cc:License>
    </rdf:RDF>
  </metadata>
  <g
     inkscape:groupmode="layer"
     id="layer1"
     inkscape:label="podklad"
     style="display:inline"
     transform="translate(-1145.1503,67.053826)" />
  <g
     inkscape:groupmode="layer"
     id="layer2"
     inkscape:label="ikony"
     transform="translate(-1145.1503,67.053826)">
    <g
       id="g11346"
       transform="translate(1906.9149,-124.57141)">
      <rect
         ry="0"
         y="101.03555"
         x="1206.929"
         height="32"
         width="32"
         id="rect11348"
         style="fill:none"
         transform="translate(-1968.6936,-43.517969)" />
      <g
         transform="translate(-774.58497,-83.23657)"
         id="g11350">
        <rect
           id="rect11352"
           style="fill:url(#linearGradient11448);stroke:#000000;stroke-opacity:1"
           inkscape:export-ydpi="180"
           inkscape:export-filename="H:\Documents and Settings\alejandro.arcila\Desktop\Websites\arcamedia\admin\icons\pdf.png"
           ry="1.75"
           height="28"
           width="20"
           inkscape:export-xdpi="180"
           y="142.36"
           x="22" />
        <g
           transform="matrix(0.09869138,0,0,0.09869138,15.777642,157.07941)"
           id="g11360">
          <path
             inkscape:connector-curvature="0"
             id="path11362"
             d="m 41.7994,132.85403 c -0.956267,-0.38977 -2.508075,-1.57191 -3.459493,-2.62803 -1.615958,-1.79524 -1.756374,-3.47209 -2.160668,-25.76314 L 35.743478,80.619863 33.149462,79.920219 c -1.427125,-0.384926 -8.041065,-0.271142 -14.698584,0.252985 -20.9772289,1.651307 -31.62925,0.283248 -34.12643,-4.383793 -0.520495,-0.973208 -0.895736,-8.480103 -0.895736,-18.09961 0,-15.800467 0.121051,-16.523594 1.945207,-18.691281 1.065205,-1.240357 3.332385,-2.566413 5.0270338,-2.94698 1.6946365,-0.380084 12.6855934,-0.50113 24.4258152,-0.267512 l 21.344001,0.424871 v -6.388553 c 0,-3.513716 0.0048,-13.660983 0,-22.5493728 -0.121051,-25.1436262 -0.30262,-24.9137592 22.021851,-24.8956042 17.372496,0.0121 19.028403,0.415189 21.422679,5.187054 1.320614,2.6352868 1.51186,5.8072909 1.513078,25.238646 l 0.0012,22.224608 2.809465,0.489025 c 1.545763,0.268722 12.148159,0.383715 23.561568,0.255407 23.13669,-0.261459 23.84237,-0.121046 26.15919,5.239344 1.0531,2.43423 1.34361,5.889361 1.25041,14.844932 -0.14526,14.496681 -0.76259,19.356548 -2.77316,21.836776 -1.54333,1.907923 -1.97547,1.947263 -26.07205,2.372376 l -24.503294,0.432133 -0.0012,23.47198 c -0.0024,22.23951 -0.121038,23.57367 -1.729746,25.40921 -3.303332,3.70497 -6.344003,4.29616 -21.801552,4.23769 -7.981752,-0.0242 -15.289286,-0.37282 -16.239496,-0.76259 z"
             style="fill:#00ff00;fill-opacity:1;stroke:#000000;stroke-width:12.10457611;stroke-linecap:round;stroke-miterlimit:4;stroke-dasharray:none;stroke-opacity:1" />
        </g>
        <g
           transform="matrix(0.34033536,0,0,0.34033536,-359.18879,170.27782)"
           id="g9899">
          <path
             id="path9901"
             d="m 1142.7865,-55.414691 c 0,-2.470962 1.3138,-4.635182 3.2809,-5.832131 l -8.074,-14.864049 c -7.2293,4.065713 -12.1137,11.810971 -12.1137,20.69618 h 16.907 z"
             style="fill:#000000"
             inkscape:connector-curvature="0" />
          <path
             id="path9903"
             d="m 1153.3597,-49.316122 c -2.1404,1.235902 -4.6718,1.180338 -6.6924,0.07504 l -8.8372,14.429822 c 7.1377,4.228443 16.2882,4.585942 23.9845,0.141651 l -8.4552,-14.648201 z"
             style="fill:#000000"
             inkscape:connector-curvature="0" />
          <path
             id="path9905"
             d="m 1153.283,-62.055411 c 2.1406,1.235734 3.3586,3.456193 3.4117,5.75886 l 16.9146,0.438527 c 0.093,-8.2966 -4.1745,-16.400285 -11.8717,-20.843733 l -8.4535,14.646515 z"
             style="fill:#000000"
             inkscape:connector-curvature="0" />
          <path
             id="path9907"
             d="m 1149.8184,-50.668549 c 2.621,0 4.7458,-2.124845 4.7458,-4.745889 0,-2.62096 -2.1248,-4.745805 -4.7458,-4.745805 -2.6209,0 -4.7458,2.124845 -4.7458,4.745805 0,2.621044 2.1249,4.745889 4.7458,4.745889 z"
             style="fill:#000000"
             inkscape:connector-curvature="0" />
        </g>
      </g>
    </g>
  </g>
</svg>
